<svg xmlns="http://www.w3.org/2000/svg" viewBox="0 0 760 570"><defs><linearGradient id="bg" x2="1" y2="1"><stop stop-color="#edf5ff"/><stop offset="1" stop-color="#e8e6ff"/></linearGradient><linearGradient id="screen" x2="1" y2="1"><stop stop-color="#2462dc"/><stop offset="1" stop-color="#6c4fe6"/></linearGradient><filter id="s"><feDropShadow dx="0" dy="12" stdDeviation="15" flood-color="#233b70" flood-opacity=".16"/></filter></defs><rect width="760" height="570" rx="42" fill="url(#bg)"/><circle cx="610" cy="115" r="100" fill="#d8e7ff"/><circle cx="114" cy="470" r="85" fill="#d8d7ff"/><g filter="url(#s)"><rect x="183" y="126" width="395" height="270" rx="22" fill="#fff"/><rect x="200" y="143" width="361" height="226" rx="12" fill="url(#screen)"/><path d="M155 401h450l-30 25H187z" fill="#a8b8d5"/><rect x="323" y="401" width="115" height="8" rx="4" fill="#dae5f7"/></g><g fill="none" stroke="#a6c5ff" stroke-width="3"><path d="M235 210l-22 18 22 18M306 210l22 18-22 18M285 201l-25 56"/></g><g filter="url(#s)"><rect x="37" y="80" width="215" height="128" rx="20" fill="#fff"/><circle cx="88" cy="127" r="27" fill="#dbeafe"/><path d="M76 129l9 9 17-22" stroke="#2670e8" stroke-width="7" fill="none" stroke-linecap="round" stroke-linejoin="round"/><rect x="127" y="108" width="91" height="11" rx="5" fill="#29416e"/><rect x="127" y="132" width="71" height="9" rx="4" fill="#9bb1d5"/><rect x="65" y="171" width="155" height="9" rx="4" fill="#e5edfb"/><rect x="501" y="294" width="220" height="144" rx="20" fill="#fff"/><circle cx="548" cy="340" r="25" fill="#e3f6ec"/><path d="M533 349v-18h30v18M541 331v-7h14v7" fill="none" stroke="#16a36c" stroke-width="4"/><rect x="584" y="324" width="101" height="11" rx="5" fill="#29416e"/><rect x="584" y="349" width="74" height="9" rx="4" fill="#9bb1d5"/><rect x="527" y="392" width="161" height="9" rx="4" fill="#e5edfb"/></g><path d="M265 84q110-55 217 9M275 475q105 55 219-10" stroke="#6c91ec" stroke-width="4" stroke-dasharray="9 13" fill="none"/><circle cx="380" cy="87" r="12" fill="#2d6df6"/><circle cx="382" cy="477" r="12" fill="#16a36c"/></svg>