<svg xmlns="http://www.w3.org/2000/svg" viewBox="0 0 640 420"><defs><linearGradient id="g" x2="1" y2="1"><stop stop-color="#e5f2ff"/><stop offset="1" stop-color="#eee8ff"/></linearGradient></defs><rect width="640" height="420" rx="26" fill="url(#g)"/><rect x="85" y="78" width="470" height="266" rx="23" fill="white"/><rect x="111" y="104" width="418" height="214" rx="13" fill="#f0f5ff"/><rect x="140" y="137" width="128" height="148" rx="12" fill="white"/><circle cx="204" cy="180" r="31" fill="#f2bb96"/><path d="M171 174q-2-43 34-41 32 0 31 40l-18-15-36 16z" fill="#2b385b"/><path d="M156 264q2-54 48-54 45 0 49 54" fill="#316ce6"/><rect x="302" y="142" width="176" height="16" rx="8" fill="#2e4576"/><rect x="302" y="176" width="145" height="11" rx="5" fill="#a9bad7"/><rect x="302" y="201" width="160" height="11" rx="5" fill="#a9bad7"/><rect x="302" y="241" width="116" height="39" rx="12" fill="#1bb984"/><path d="M330 260l10 9 17-20" stroke="white" stroke-width="6" fill="none" stroke-linecap="round" stroke-linejoin="round"/><circle cx="522" cy="70" r="38" fill="#d7e6ff"/><path d="M506 69l11 11 22-25" stroke="#316ce6" stroke-width="8" fill="none" stroke-linecap="round" stroke-linejoin="round"/></svg>